<?xml version="1.0" encoding="iso-8859-1"?>
<!-- Generator: Adobe Illustrator 19.0.0, SVG Export Plug-In . SVG Version: 6.00 Build 0)  -->
<svg version="1.1" id="Capa_1" xmlns="http://www.w3.org/2000/svg" xmlns:xlink="http://www.w3.org/1999/xlink" x="0px" y="0px"
	 viewBox="0 0 512.002 512.002" style="enable-background:new 0 0 512.002 512.002;" xml:space="preserve">
<path style="fill:#C9F3FF;" d="M433.114,320.594l-38.707-214.591H168.03l-38.758,214.423c-10.39,57.481,0.303,116.78,30.115,167.012
	l0,0c5.358,9.028,15.079,14.563,25.577,14.563h192.491c10.508,0,20.236-5.545,25.591-14.586l0.051-0.086
	C432.808,437.161,443.464,377.973,433.114,320.594z"/>
<path style="fill:#FFD364;" d="M394.407,106.003H168.03l-38.758,214.423c-2.917,16.141-4.171,32.424-3.806,48.61
	c0.854,37.824,31.744,68.052,69.577,68.052h172.287c37.832,0,68.736-30.225,69.577-68.047c0.359-16.132-0.89-32.36-3.792-48.446
	L394.407,106.003z"/>
<polygon style="fill:#FF6E37;" points="404.16,160.075 394.407,106.003 168.03,106.003 158.256,160.075 "/>
<g>
	<path style="fill:#FFF0A4;" d="M388.248,372.498l-25.688,25.688c-10.349,10.349-27.128,10.349-37.477,0l-25.687-25.688
		c-10.349-10.349-10.349-27.128,0-37.477l25.688-25.688c10.349-10.349,27.128-10.349,37.477,0l25.688,25.688
		C398.597,345.371,398.597,362.149,388.248,372.498z"/>
	<path style="fill:#FFF0A4;" d="M227.908,332.384h-20.866c-18.077,0-32.731-14.654-32.731-32.731v-20.866
		c0-18.077,14.654-32.731,32.731-32.731h20.866c18.077,0,32.731,14.654,32.731,32.731v20.866
		C260.639,317.73,245.985,332.384,227.908,332.384z"/>
</g>
<circle style="fill:#FC5B5B;" cx="326.76" cy="237.729" r="32.82"/>
<g>
	<path style="fill:#A0E557;" d="M295.791,106.003h34.297c21.461-24.104,28.759-61.105,15.876-95.999l0,0l0,0
		c-18.883,7.029-33.539,20.759-42.695,37.98C308.704,67.283,306.21,88.081,295.791,106.003z"/>
	<path style="fill:#A0E557;" d="M295.793,106.003c17.634-30.332,12.567-68.912-15.211-94.498l0,0l0,0
		c-27.778,25.587-32.845,64.166-15.211,94.498H295.793z"/>
	<path style="fill:#A0E557;" d="M103.288,174.67c-37.67-37.67-37.67-98.744,0-136.413s98.744-37.67,136.413,0L103.288,174.67z"/>
</g>
<path style="fill:#D8FB93;" d="M215.147,62.81c-24.109-24.109-63.197-24.109-87.304,0s-24.109,63.197,0,87.304L215.147,62.81z"/>
<path d="M318.014,405.257c7.116,7.116,16.461,10.673,25.81,10.673c9.345,0,18.694-3.559,25.81-10.673l25.688-25.688c0,0,0,0,0-0.001
	c14.23-14.231,14.23-37.387,0-51.619l-25.688-25.688c-14.231-14.23-37.389-14.23-51.618,0l-25.688,25.688
	c-14.23,14.231-14.23,37.387,0,51.619L318.014,405.257z M306.468,342.093l25.688-25.688c3.216-3.217,7.441-4.825,11.667-4.825
	c4.225,0,8.45,1.608,11.667,4.825l25.688,25.687c6.433,6.435,6.433,16.902,0,23.337v-0.001l-25.687,25.688
	c-6.436,6.434-16.903,6.432-23.335,0l-25.688-25.687C300.035,358.993,300.035,348.527,306.468,342.093z"/>
<path d="M207.042,342.384h20.866c23.562,0,42.73-19.169,42.73-42.73v-20.866c0-23.562-19.169-42.731-42.73-42.731h-20.866
	c-23.562,0-42.73,19.169-42.73,42.731v20.866C164.313,323.215,183.481,342.384,207.042,342.384z M184.312,278.787
	c0-12.534,10.197-22.731,22.73-22.731h20.866c12.533,0,22.73,10.197,22.73,22.731v20.866c0,12.533-10.197,22.73-22.73,22.73h-20.866
	c-12.533,0-22.73-10.197-22.73-22.73V278.787z"/>
<path d="M217.472,367.57c-2.63,0-5.21,1.07-7.07,2.931c-1.859,1.859-2.93,4.439-2.93,7.069c0,2.631,1.07,5.211,2.93,7.07
	c1.86,1.86,4.44,2.93,7.07,2.93c2.64,0,5.21-1.069,7.07-2.93c1.87-1.859,2.939-4.439,2.939-7.07c0-2.63-1.069-5.21-2.939-7.069
	C222.682,368.641,220.112,367.57,217.472,367.57z"/>
<path d="M246.993,212.022c2.63,0,5.21-1.07,7.069-2.93c1.86-1.86,2.931-4.44,2.931-7.07s-1.07-5.21-2.931-7.07
	c-1.859-1.86-4.43-2.93-7.069-2.93c-2.631,0-5.211,1.07-7.07,2.93c-1.86,1.86-2.93,4.44-2.93,7.07s1.069,5.21,2.93,7.07
	C241.782,210.962,244.362,212.022,246.993,212.022z"/>
<path d="M263.743,402.341c0,2.64,1.06,5.21,2.93,7.07c1.859,1.859,4.439,2.93,7.07,2.93c2.63,0,5.21-1.07,7.069-2.93
	c1.86-1.86,2.931-4.431,2.931-7.07c0-2.63-1.07-5.21-2.931-7.07c-1.859-1.859-4.439-2.93-7.069-2.93c-2.631,0-5.211,1.07-7.07,2.93
	C264.802,397.131,263.743,399.711,263.743,402.341z"/>
<path d="M326.755,280.545c23.611,0,42.82-19.209,42.82-42.82c0-12.597-5.47-23.939-14.158-31.781c1.792-5.21,6.73-8.97,12.541-8.97
	c5.522,0,10-4.477,10-10s-4.478-10-10-10c-13.383,0-24.938,7.948-30.214,19.367c-3.509-0.933-7.191-1.436-10.989-1.436
	c-23.61,0-42.819,19.209-42.819,42.82C283.936,261.336,303.145,280.545,326.755,280.545z M326.755,214.905
	c12.583,0,22.82,10.237,22.82,22.82c0,12.583-10.237,22.82-22.82,22.82c-12.583,0-22.819-10.237-22.819-22.82
	C303.936,225.142,314.172,214.905,326.755,214.905z"/>
<path d="M442.955,318.819l-38.708-214.591c-0.858-4.761-5.003-8.225-9.841-8.225H381.4l24.211-83.206
	c1.543-5.303-1.505-10.853-6.808-12.396c-5.304-1.545-10.853,1.504-12.396,6.808L360.57,96.003h-11.181
	c5.496-9.812,9.355-20.702,11.365-32.237c3.297-18.919,1.426-38.708-5.411-57.227c-0.92-2.492-2.794-4.516-5.209-5.625
	c-2.413-1.108-5.169-1.21-7.66-0.284c-14.383,5.354-27.097,14.485-37.064,26.386c-4.622-8.369-10.672-16.069-18.054-22.868
	c-3.83-3.526-9.721-3.526-13.551,0c-15.164,13.968-24.758,31.713-27.745,51.319c-2.071,13.59-0.709,27.54,3.794,40.535h-53.759
	l50.676-50.676c3.905-3.905,3.905-10.237,0-14.143c-41.51-41.508-109.048-41.509-150.556,0
	C76.109,51.29,65.035,78.025,65.035,106.461s11.073,55.171,31.181,75.278c1.953,1.953,4.512,2.929,7.071,2.929
	s5.118-0.977,7.071-2.929l41.279-41.279l-32.206,178.188c-10.816,59.843,0.319,121.6,31.356,173.895
	c7.123,12.003,20.219,19.459,34.177,19.459h192.491c13.973,0,27.075-7.468,34.183-19.47l0.064-0.107
	C442.629,440.203,453.73,378.549,442.955,318.819z M128.524,135.291c-5.698-8.455-8.763-18.405-8.763-28.828
	c0-1.476,0.074-2.94,0.196-4.394l32.959,8.831L128.524,135.291z M147.869,60.425l8.203,30.615l-30.615-8.203
	c2.429-4.721,5.594-9.093,9.457-12.956C138.777,66.019,143.148,62.854,147.869,60.425z M167.101,54.925
	c1.454-0.122,2.918-0.196,4.395-0.196c10.423,0,20.374,3.065,28.828,8.763l-24.391,24.391L167.101,54.925z M103.69,160.126
	c-12.091-15.217-18.653-33.937-18.653-53.663c0-23.094,8.993-44.806,25.323-61.136c16.855-16.855,38.995-25.283,61.136-25.283
	c19,0,37.999,6.206,53.658,18.618l-10.501,10.501c-12.373-9.359-27.372-14.434-43.157-14.434c-19.161,0-37.175,7.461-50.724,21.01
	s-21.011,31.562-21.011,50.724c0,15.785,5.075,30.785,14.434,43.158L103.69,160.126z M386.049,116.003l6.146,34.072h-26.529
	l9.915-34.072H386.049z M339.742,23.878c6.176,25.74,0.912,52.757-14.327,72.125h-14.106c4.503-12.995,5.865-26.946,3.794-40.535
	c-0.311-2.038-0.709-4.051-1.162-6.046C320.439,38.484,329.206,29.811,339.742,23.878z M280.582,25.981
	c6.011,7.235,10.314,15.32,12.855,23.788c0.117,0.64,0.294,1.266,0.532,1.871c3.887,14.526,2.619,30.073-4.193,44.362h-18.387
	C260.286,72.715,263.886,46.078,280.582,25.981z M139.113,322.204l37.271-206.201h178.369l-9.915,34.072h-97.843
	c-5.522,0-10,4.477-10,10s4.478,10,10,10h105.318c0.012,0,0.023,0.002,0.035,0.002c0.02,0,0.04-0.002,0.06-0.002h43.396
	l27.471,152.294c2.781,15.421,3.978,30.981,3.635,46.449c-0.717,32.13-27.444,58.269-59.58,58.269H195.042
	c-32.127,0-58.854-26.144-59.58-58.277c0-0.004-0.001-0.008-0.001-0.012C135.114,353.283,136.316,337.674,139.113,322.204z
	 M394.505,482.212l-0.064,0.107c-3.536,5.972-10.046,9.682-16.986,9.682H184.963c-6.934,0-13.439-3.704-16.978-9.666
	c-9.956-16.776-17.681-34.61-23.11-53.057c14.152,11.527,31.704,17.809,50.167,17.809h172.286c18.475,0,36.038-6.29,50.196-17.83
	C412.116,447.669,404.421,465.47,394.505,482.212z"/>
<path d="M202.832,170.073c2.63,0,5.21-1.07,7.069-2.93c1.86-1.86,2.931-4.44,2.931-7.07s-1.07-5.21-2.931-7.07
	c-1.859-1.86-4.439-2.93-7.069-2.93c-2.641,0-5.221,1.07-7.08,2.93c-1.86,1.86-2.92,4.44-2.92,7.07c0,2.64,1.06,5.21,2.92,7.07
	C197.612,169.003,200.192,170.073,202.832,170.073z"/>
<g>
</g>
<g>
</g>
<g>
</g>
<g>
</g>
<g>
</g>
<g>
</g>
<g>
</g>
<g>
</g>
<g>
</g>
<g>
</g>
<g>
</g>
<g>
</g>
<g>
</g>
<g>
</g>
<g>
</g>
</svg>
